<?xml version="1.0" standalone="no"?>
<!DOCTYPE svg PUBLIC "-//W3C//DTD SVG 20010904//EN"
 "http://www.w3.org/TR/2001/REC-SVG-20010904/DTD/svg10.dtd">
<svg version="1.0" xmlns="http://www.w3.org/2000/svg"
 width="1536.000000pt" height="410.000000pt" viewBox="0 0 1536.000000 410.000000"
 preserveAspectRatio="xMidYMid meet">

<g transform="translate(0.000000,410.000000) scale(0.100000,-0.100000)"
fill="#000000" stroke="none">
<path d="M6454 4037 c16 -12 47 -37 68 -54 44 -36 62 -34 92 11 16 25 16 25
-22 36 -48 12 -141 30 -156 29 -6 0 2 -10 18 -22z"/>
<path d="M6150 4040 c-11 -7 -5 -8 20 -4 43 8 51 14 19 14 -13 0 -31 -5 -39
-10z"/>
<path d="M4785 4019 c-103 -13 -242 -59 -330 -111 -39 -23 -105 -77 -147 -120
-64 -65 -86 -96 -127 -181 -70 -144 -86 -225 -86 -422 1 -187 15 -256 75 -382
88 -182 252 -299 490 -350 116 -25 381 -24 537 1 62 10 119 23 126 30 13 10
61 276 50 276 -3 0 -77 -50 -167 -111 -185 -126 -212 -135 -363 -118 -176 19
-295 97 -395 259 -27 44 -65 162 -78 242 -19 116 -8 372 20 468 73 252 248
407 485 427 124 10 148 2 312 -104 81 -52 154 -98 161 -100 9 -4 12 25 12 125
0 151 16 134 -140 156 -140 20 -337 27 -435 15z"/>
<path d="M6268 4008 c-16 -5 -28 -16 -28 -24 0 -24 32 -148 40 -158 12 -13
200 56 200 73 0 12 -63 67 -107 95 -46 28 -62 30 -105 14z"/>
<path d="M9131 4009 c-306 -60 -521 -287 -577 -611 -21 -122 -14 -330 15 -440
36 -137 85 -222 186 -324 98 -99 175 -145 305 -180 91 -26 327 -25 425 0 323
84 527 340 554 694 23 303 -56 537 -235 700 -80 74 -197 135 -300 157 -76 16
-300 19 -373 4z m343 -127 c132 -62 239 -216 283 -407 26 -116 26 -430 -1
-530 -59 -224 -189 -367 -364 -404 -192 -40 -364 35 -472 205 -87 138 -126
324 -117 554 9 221 58 366 163 480 101 109 183 142 340 137 88 -3 109 -8 168
-35z"/>
<path d="M14318 4000 c-260 -64 -453 -259 -522 -527 -39 -149 -39 -369 -1
-518 8 -33 36 -102 61 -153 85 -173 239 -297 434 -349 98 -26 328 -23 434 6
294 79 490 310 537 631 18 127 7 314 -26 425 -75 255 -244 422 -491 485 -105
27 -316 27 -426 0z m323 -96 c141 -41 251 -158 312 -329 42 -119 52 -197 51
-380 -1 -141 -5 -184 -23 -250 -65 -242 -195 -377 -391 -408 -142 -22 -277 22
-377 122 -63 64 -131 195 -157 302 -37 152 -37 405 -1 555 49 199 185 356 342
393 62 15 185 12 244 -5z"/>
<path d="M135 3974 c9 -14 28 -56 43 -92 l27 -67 6 -520 c4 -383 9 -531 18
-560 49 -152 141 -233 321 -282 93 -25 393 -25 500 0 156 36 285 125 328 226
37 84 42 161 42 621 0 486 4 532 57 631 15 30 29 57 31 62 2 4 -73 7 -167 7
-94 0 -171 -2 -171 -5 0 -3 11 -27 24 -53 57 -112 57 -116 54 -669 -3 -506 -3
-508 -26 -558 -48 -104 -142 -165 -288 -186 -145 -20 -284 3 -370 61 -47 33
-96 119 -113 198 -7 34 -11 217 -11 520 0 512 2 533 59 639 l29 53 -205 0
-205 0 17 -26z"/>
<path d="M1791 3939 c56 -112 59 -143 59 -704 0 -561 -3 -592 -59 -704 l-31
-61 154 0 155 0 -34 73 c-19 39 -39 101 -45 137 -11 75 -14 1050 -2 1050 4 0
21 -20 37 -44 17 -24 226 -311 465 -640 l434 -596 53 0 52 0 3 673 c3 669 3
672 26 734 12 35 31 77 42 95 11 18 20 36 20 41 0 4 -69 7 -154 7 l-154 0 29
-53 c57 -107 59 -129 57 -631 l-3 -458 -414 571 -414 571 -154 0 -153 0 31
-61z"/>
<path d="M3412 3993 c2 -5 16 -32 31 -62 54 -101 57 -139 57 -696 0 -557 -3
-595 -57 -696 -15 -30 -29 -57 -31 -61 -2 -5 87 -8 197 -8 111 0 201 2 201 4
0 2 -11 23 -24 47 -54 97 -56 118 -56 714 0 341 4 567 11 595 5 25 23 72 40
104 16 33 29 61 29 63 0 1 -90 3 -201 3 -110 0 -199 -3 -197 -7z"/>
<path d="M7429 3948 c58 -103 61 -130 61 -713 0 -581 0 -587 -60 -705 l-30
-60 485 0 c298 0 485 4 485 9 0 6 9 72 20 147 11 75 19 138 17 140 -1 2 -73
-44 -159 -101 -180 -119 -178 -118 -393 -113 l-130 3 -3 570 c-2 344 1 601 7
647 9 66 30 127 79 221 2 4 -89 7 -202 7 l-206 0 29 -52z"/>
<path d="M10310 3996 c0 -2 11 -23 24 -47 61 -110 61 -113 61 -714 0 -601 0
-596 -61 -717 l-24 -48 154 0 154 0 -29 54 c-55 102 -59 140 -59 711 0 286 4
515 9 510 4 -6 134 -295 287 -643 l279 -632 45 2 45 3 290 639 290 639 3 -524
c1 -335 -1 -542 -8 -574 -6 -28 -26 -81 -44 -118 l-34 -67 199 0 199 0 -31 61
c-56 112 -59 143 -59 704 0 561 3 592 59 704 l32 61 -172 -2 -172 -3 -268
-595 c-147 -327 -271 -594 -276 -593 -4 1 -128 269 -275 595 l-267 593 -175 3
c-97 1 -176 1 -176 -2z"/>
<path d="M12435 3933 c18 -38 38 -92 44 -121 7 -34 11 -241 11 -585 0 -581 -1
-586 -59 -700 l-30 -58 372 4 c402 4 424 7 547 65 74 34 152 111 181 175 34
73 34 229 2 299 -51 111 -194 206 -343 229 -111 17 -112 19 -30 43 143 42 229
106 277 205 25 50 28 67 28 161 0 95 -3 110 -27 156 -49 94 -136 149 -280 178
-61 13 -146 16 -402 16 l-324 0 33 -67z m590 -41 c108 -50 165 -142 165 -271
0 -96 -24 -163 -82 -226 -70 -77 -124 -97 -270 -103 l-118 -4 0 317 0 317 128
-4 c105 -3 135 -7 177 -26z m-57 -692 c148 -19 255 -95 287 -203 17 -58 20
-175 5 -229 -19 -66 -70 -129 -134 -164 -73 -40 -149 -54 -294 -54 l-112 0 0
323 c0 178 3 327 7 330 9 10 156 8 241 -3z"/>
<path d="M5908 3951 c-92 -53 -141 -92 -130 -103 5 -5 32 -17 60 -28 l51 -19
11 33 c6 18 26 59 45 91 20 32 34 59 32 61 -2 2 -33 -14 -69 -35z"/>
<path d="M6049 3938 c-31 -42 -69 -120 -69 -140 0 -11 204 -7 216 4 6 7 0 38
-27 141 -9 35 -12 37 -49 37 -35 0 -43 -5 -71 -42z"/>
<path d="M6667 3934 l-39 -43 60 -73 c32 -40 73 -94 91 -120 18 -27 36 -48 41
-48 12 0 99 99 116 133 9 16 13 35 10 43 -11 28 -205 156 -233 153 -4 0 -25
-21 -46 -45z"/>
<path d="M6489 3810 c-31 -16 -85 -38 -120 -50 -35 -12 -65 -23 -67 -25 -3 -3
67 -288 72 -292 1 -2 47 12 102 31 104 35 264 110 264 125 0 22 -172 242 -188
241 -4 -1 -32 -14 -63 -30z"/>
<path d="M5667 3748 c-49 -61 -87 -124 -93 -157 -5 -22 1 -34 28 -61 32 -33
127 -83 181 -96 26 -6 27 -5 27 32 0 35 28 182 46 242 4 15 2 22 -7 22 -8 0
-43 14 -77 30 -35 17 -65 30 -67 30 -2 0 -19 -19 -38 -42z"/>
<path d="M6990 3708 c-14 -22 -49 -62 -79 -90 l-54 -49 31 -77 c17 -42 38
-103 47 -134 9 -32 20 -58 24 -58 13 0 158 154 174 186 15 28 14 34 -7 87 -24
58 -78 148 -99 165 -9 7 -19 -1 -37 -30z"/>
<path d="M6059 3713 l-116 -4 -18 -72 c-10 -40 -20 -106 -23 -149 l-4 -76 75
-7 c76 -7 305 9 319 23 4 4 -9 71 -29 150 -35 139 -36 142 -62 140 -14 -1 -78
-4 -142 -5z"/>
<path d="M6693 3475 c-45 -23 -130 -58 -190 -78 -59 -20 -107 -40 -107 -44 6
-37 68 -280 74 -286 14 -16 270 81 353 135 47 30 48 33 42 67 -9 53 -64 216
-78 233 -10 12 -24 8 -94 -27z"/>
<path d="M5526 3472 c-3 -5 -10 -50 -17 -100 -9 -72 -9 -98 1 -122 18 -43 83
-98 154 -130 64 -29 175 -65 181 -58 2 2 -2 29 -10 59 -8 31 -18 93 -22 139
l-8 83 -70 22 c-85 26 -124 46 -169 86 -19 16 -37 26 -40 21z"/>
<path d="M7130 3348 c-19 -23 -62 -64 -95 -91 l-60 -50 0 -139 c0 -76 3 -138
7 -138 12 0 132 124 162 168 27 40 29 50 34 167 3 70 1 125 -4 124 -5 0 -25
-19 -44 -41z"/>
<path d="M6255 3338 c-27 -5 -119 -10 -202 -11 l-153 -2 0 -37 c0 -41 24 -175
40 -224 11 -32 11 -32 98 -40 81 -7 338 9 351 21 3 3 -8 58 -24 123 -39 163
-45 182 -53 181 -4 -1 -29 -6 -57 -11z"/>
<path d="M6785 3094 c-44 -24 -125 -57 -180 -75 -55 -18 -104 -36 -108 -39 -4
-4 5 -58 21 -121 l29 -114 35 2 c38 2 187 59 253 96 48 27 52 42 54 190 1 80
-2 107 -11 106 -7 -1 -49 -21 -93 -45z"/>
<path d="M5530 3104 c0 -3 14 -40 31 -84 25 -67 39 -87 87 -130 62 -55 197
-129 281 -154 82 -24 86 -22 51 29 -28 40 -78 141 -93 187 -3 9 -21 19 -39 23
-86 18 -222 69 -267 100 -28 18 -51 32 -51 29z"/>
<path d="M6360 2957 c-25 -5 -120 -10 -211 -11 l-167 -1 24 -54 c27 -61 56
-110 93 -160 l25 -33 161 4 c88 3 167 9 176 12 15 6 14 19 -13 124 -16 64 -32
120 -36 123 -4 3 -27 1 -52 -4z"/>
<path d="M7014 2860 c-18 -15 -38 -32 -46 -36 -8 -5 -18 -22 -22 -39 l-7 -30
36 35 c40 38 79 89 74 95 -2 2 -18 -9 -35 -25z"/>
<path d="M6800 2736 c-14 -8 -70 -29 -125 -47 -55 -18 -101 -33 -103 -34 -4
-3 19 -95 24 -95 12 0 143 54 176 72 51 29 101 119 66 118 -7 -1 -24 -7 -38
-14z"/>
<path d="M5840 2680 c58 -46 281 -142 295 -128 2 1 -11 19 -29 39 -25 27 -46
38 -92 48 -32 8 -90 24 -129 37 -64 21 -68 22 -45 4z"/>
<path d="M6420 2629 c-25 -4 -89 -8 -142 -8 l-98 -1 12 -25 c6 -14 27 -35 45
-46 30 -19 46 -21 153 -18 65 2 121 7 125 10 3 4 1 27 -6 53 -12 50 -11 49
-89 35z"/>
<path d="M2566 2004 c-11 -30 -6 -37 14 -19 11 10 20 22 20 27 0 15 -28 9 -34
-8z"/>
<path d="M38 1941 c10 -6 13 -34 10 -110 l-3 -101 38 0 c34 0 37 2 27 19 -5
11 -10 33 -10 50 0 24 4 31 20 31 10 0 24 -8 29 -17 8 -14 10 -8 10 27 0 35
-2 41 -10 28 -5 -10 -19 -18 -30 -18 -18 0 -20 6 -17 43 3 39 5 42 35 45 22 2
38 -3 52 -17 l21 -21 0 25 c0 25 0 25 -92 25 -54 0 -87 -4 -80 -9z"/>
<path d="M368 1938 c7 -7 12 -43 12 -90 0 -70 3 -82 25 -103 30 -31 82 -33
119 -4 24 19 26 26 26 104 0 69 3 86 18 94 13 8 9 10 -23 10 -22 -1 -32 -3
-22 -6 14 -4 17 -17 17 -84 0 -98 -9 -119 -53 -119 -49 0 -57 14 -57 107 0 68
3 84 18 92 13 8 4 10 -37 11 -43 0 -52 -3 -43 -12z"/>
<path d="M738 1941 c10 -6 13 -34 10 -110 -2 -63 1 -101 7 -101 6 0 9 31 7 80
-2 44 1 80 6 80 5 0 40 -39 78 -87 l69 -88 3 110 c2 72 7 112 15 117 7 4 -3 8
-23 8 -29 -1 -32 -2 -17 -11 13 -8 17 -23 17 -64 0 -30 -4 -55 -8 -55 -5 0
-32 29 -60 65 -45 56 -57 65 -85 65 -21 0 -27 -3 -19 -9z"/>
<path d="M1108 1937 c10 -11 12 -44 10 -111 l-3 -96 30 0 30 0 -3 100 c-3 81
-1 101 12 106 63 24 101 -131 45 -187 -19 -19 -18 -19 1 -19 26 0 67 40 76 74
10 40 -4 90 -32 117 -21 20 -38 24 -102 28 -68 3 -75 2 -64 -12z"/>
<path d="M1519 1840 c-32 -74 -42 -110 -33 -110 7 0 14 12 16 28 3 25 6 27 48
27 42 0 45 -2 48 -27 3 -25 7 -28 42 -28 l38 0 -28 53 c-15 28 -38 78 -51 110
-12 31 -25 57 -28 57 -4 0 -27 -49 -52 -110z m49 5 c18 -38 15 -45 -18 -45
-16 0 -30 4 -30 10 0 15 23 60 30 60 4 0 12 -11 18 -25z"/>
<path d="M1877 1930 c-83 -66 -38 -210 66 -210 33 0 87 26 87 42 0 6 -8 4 -18
-5 -10 -10 -35 -17 -55 -17 -49 0 -67 27 -67 103 0 48 4 62 25 82 21 22 22 25
6 25 -10 0 -30 -9 -44 -20z"/>
<path d="M1979 1936 c13 -7 30 -24 37 -37 13 -24 13 -23 14 11 0 34 -2 35 -38
37 -36 2 -36 1 -13 -11z"/>
<path d="M2214 1937 c16 -12 18 -26 15 -110 l-4 -97 30 0 30 0 -3 101 c-3 76
0 104 10 110 8 5 -8 9 -41 9 -48 0 -52 -2 -37 -13z"/>
<path d="M2494 1916 c-28 -28 -34 -41 -34 -78 0 -50 18 -82 60 -103 82 -42
170 15 170 111 0 28 -8 44 -34 70 -19 19 -44 34 -56 34 -20 0 -20 -1 7 -24 24
-21 28 -31 28 -83 0 -70 -23 -113 -59 -113 -41 0 -61 35 -61 107 0 59 3 67 28
89 26 23 27 24 7 24 -12 0 -37 -15 -56 -34z"/>
<path d="M2853 1943 c16 -4 18 -15 15 -109 -2 -65 1 -104 7 -104 6 0 9 24 7
58 -7 124 -5 125 73 26 l70 -89 3 45 c2 25 -1 46 -7 48 -6 2 -33 32 -62 68
-46 59 -54 64 -87 63 -21 -1 -29 -3 -19 -6z"/>
<path d="M3018 1932 c10 -10 19 -13 21 -7 2 5 9 13 15 17 6 4 -4 8 -21 8 -32
0 -32 -1 -15 -18z"/>
<path d="M3434 1934 c12 -11 16 -36 16 -94 0 -85 10 -104 56 -116 38 -10 87 8
101 36 7 14 13 60 13 102 0 52 4 78 13 81 6 3 -4 6 -23 6 -28 0 -32 -2 -17
-10 13 -8 17 -24 17 -79 0 -91 -13 -120 -55 -120 -48 0 -55 14 -55 111 0 75 3
88 18 92 9 3 -9 5 -41 6 -53 1 -57 0 -43 -15z"/>
<path d="M3804 1937 c15 -11 17 -26 14 -110 -2 -60 1 -97 7 -97 6 0 9 31 7 80
-2 44 0 80 5 79 4 0 37 -38 73 -83 l65 -83 3 101 c2 80 6 104 19 114 15 10 12
12 -18 12 -22 0 -29 -3 -21 -9 9 -5 12 -26 10 -67 l-3 -59 -54 68 c-49 60 -58
67 -90 67 -31 0 -33 -1 -17 -13z"/>
<path d="M4174 1937 c16 -12 18 -26 15 -110 l-4 -97 30 0 30 0 -3 101 c-3 76
0 104 10 110 8 5 -8 9 -41 9 -48 0 -52 -2 -37 -13z"/>
<path d="M4423 1938 c9 -7 36 -60 61 -118 41 -96 45 -103 54 -80 55 141 76
187 89 198 14 10 11 12 -23 11 -21 -1 -31 -3 -21 -6 9 -2 17 -8 17 -11 0 -12
-41 -117 -49 -125 -4 -4 -19 21 -33 55 -24 57 -25 64 -10 76 13 10 6 12 -43
12 -49 0 -56 -2 -42 -12z"/>
<path d="M4798 1941 c10 -6 13 -34 10 -110 l-3 -101 40 0 c30 0 36 3 27 12 -7
7 -12 29 -12 50 0 31 4 38 20 38 10 0 24 -8 29 -17 8 -14 10 -8 10 27 0 35 -2
41 -10 28 -5 -10 -19 -18 -30 -18 -18 0 -20 6 -17 42 2 32 8 44 21 46 32 6 68
-8 77 -31 8 -20 9 -19 9 11 l1 32 -92 0 c-54 0 -87 -4 -80 -9z"/>
<path d="M5148 1941 c10 -6 13 -34 10 -110 l-3 -101 38 0 c34 0 37 2 27 19
-12 24 -13 68 -1 75 5 4 23 -16 40 -44 26 -43 35 -50 62 -50 l31 0 -36 50 -36
51 26 23 c22 18 26 28 20 50 -4 16 -17 31 -32 36 -31 12 -164 13 -146 1z m124
-26 c16 -36 -3 -75 -37 -75 -23 0 -25 4 -25 43 0 24 3 47 7 50 15 15 44 5 55
-18z"/>
<path d="M5535 1936 c-11 -8 -18 -26 -18 -46 0 -35 13 -50 72 -82 37 -20 48
-43 31 -63 -26 -31 -85 -5 -103 45 -3 8 -6 -3 -6 -25 l-1 -40 46 -2 c67 -3
104 19 104 61 0 36 -24 63 -89 98 -35 19 -38 30 -15 52 19 20 5 21 -21 2z"/>
<path d="M5600 1942 c8 -2 25 -16 37 -31 l22 -26 1 31 c0 28 -2 30 -37 31 -21
0 -31 -2 -23 -5z"/>
<path d="M5834 1934 c19 -18 23 -153 6 -185 -10 -17 -7 -19 29 -19 l40 0 -11
30 c-15 43 -6 169 12 180 10 7 -2 10 -38 10 -49 0 -52 -1 -38 -16z"/>
<path d="M6080 1925 l0 -25 20 20 c11 11 27 20 36 20 13 0 15 -15 12 -105 l-3
-105 30 0 30 0 -3 105 c-3 84 -1 105 10 105 18 0 44 -21 51 -40 3 -8 6 0 6 18
l1 32 -95 0 c-95 0 -95 0 -95 -25z"/>
<path d="M6479 1840 c-29 -70 -42 -110 -34 -110 7 0 15 14 19 30 5 27 9 30 45
30 30 0 43 -5 51 -20 6 -11 8 -25 5 -30 -4 -6 10 -10 34 -10 l40 0 -18 33
c-11 17 -34 67 -52 110 -17 42 -35 77 -38 77 -3 0 -27 -50 -52 -110z m61 -27
c0 -8 -12 -13 -30 -13 -35 0 -35 -1 -14 48 l16 37 14 -30 c7 -16 13 -36 14
-42z"/>
<path d="M6803 1943 c16 -4 18 -15 15 -109 l-3 -104 31 0 31 0 -5 50 c-2 28
-1 50 4 50 5 0 24 -23 42 -50 27 -42 37 -50 63 -50 l31 0 -29 38 c-47 59 -47
61 -19 87 32 30 32 40 1 70 -22 23 -32 25 -102 24 -43 -1 -70 -3 -60 -6z m125
-41 c4 -38 -12 -62 -39 -62 -16 0 -19 8 -19 43 0 50 6 59 35 55 15 -2 21 -12
23 -36z"/>
<path d="M7174 1937 c15 -11 17 -26 14 -110 l-3 -97 30 0 30 0 -3 101 c-3 76
0 104 10 110 8 5 -8 9 -41 9 -47 0 -52 -2 -37 -13z"/>
<path d="M7517 1943 c-3 -5 -20 -44 -37 -88 -17 -44 -38 -90 -46 -102 -13 -21
-13 -23 5 -23 10 0 19 6 18 13 -1 43 3 47 48 47 43 0 46 -2 52 -30 5 -26 10
-30 38 -30 l33 0 -48 106 c-52 114 -55 120 -63 107z m8 -99 c19 -46 20 -44
-15 -44 -20 0 -30 5 -30 15 0 14 21 65 26 65 2 0 11 -16 19 -36z"/>
<path d="M8034 1916 c-29 -29 -34 -41 -34 -80 0 -36 6 -52 29 -78 26 -29 35
-33 80 -33 40 0 55 5 73 24 l23 24 -27 -16 c-34 -21 -82 -22 -102 -2 -38 39
-26 167 18 185 21 9 21 9 -2 9 -14 1 -38 -13 -58 -33z"/>
<path d="M8136 1940 c12 -5 31 -21 42 -37 l21 -28 1 35 c0 34 -1 35 -43 36
-31 1 -36 0 -21 -6z"/>
<path d="M8421 1936 c-57 -32 -70 -125 -23 -176 76 -86 214 -21 199 94 -7 47
-52 96 -89 96 l-22 0 21 -15 c44 -31 53 -126 17 -182 -18 -28 -55 -30 -78 -4
-35 39 -33 144 5 182 22 22 6 25 -30 5z"/>
<path d="M8763 1943 c16 -4 18 -15 15 -109 l-3 -104 40 1 c22 0 34 3 28 6 -9
3 -13 33 -13 98 0 79 3 96 18 104 13 8 2 10 -43 10 -33 -1 -52 -3 -42 -6z"/>
<path d="M9154 1931 c-86 -52 -53 -191 48 -207 78 -13 148 57 133 133 -8 42
-54 93 -84 93 -19 0 -19 -1 4 -25 21 -20 25 -34 25 -79 0 -90 -27 -128 -78
-111 -55 17 -55 186 0 208 9 4 9 6 -2 6 -8 1 -29 -8 -46 -18z"/>
<path d="M9504 1934 c9 -8 16 -23 16 -32 0 -12 3 -14 8 -5 5 8 20 -17 41 -70
19 -45 37 -86 41 -91 5 -4 18 13 29 39 24 55 26 66 7 40 -13 -18 -14 -18 -23
1 -5 10 -20 45 -33 77 -22 56 -23 57 -62 57 -36 0 -38 -1 -24 -16z"/>
<path d="M9682 1898 c-12 -28 -20 -53 -18 -55 2 -2 9 10 16 27 7 16 16 30 21
30 13 0 11 -127 -1 -151 -10 -17 -7 -19 27 -19 l38 0 -3 101 c-3 76 0 104 10
110 8 6 -2 9 -28 9 -39 0 -41 -1 -62 -52z"/>
<path d="M9943 1943 c16 -4 18 -15 15 -109 l-3 -104 30 0 30 0 -3 55 c-4 50
-2 55 17 55 11 0 28 -12 38 -26 16 -25 16 -28 0 -55 -16 -28 -16 -29 7 -29 28
0 56 29 56 57 0 12 -12 30 -27 41 l-27 19 22 12 c29 15 29 55 0 75 -16 11 -44
16 -98 15 -41 -1 -67 -3 -57 -6z m115 -15 c27 -27 7 -78 -30 -78 -14 0 -18 8
-18 38 0 52 20 68 48 40z"/>
<path d="M10345 1938 c-38 -20 -55 -51 -55 -100 0 -89 79 -140 163 -104 46 19
72 71 63 126 -6 39 -54 90 -86 90 -17 0 -17 -2 5 -25 21 -20 25 -34 25 -87 0
-71 -18 -108 -53 -108 -30 0 -44 11 -56 43 -22 56 -8 138 26 165 22 16 -3 16
-32 0z"/>
<path d="M10894 1937 c15 -11 17 -26 14 -110 l-3 -97 30 0 30 0 -3 104 c-3 94
-1 105 15 109 10 3 -9 5 -41 6 -51 1 -57 -1 -42 -12z"/>
<path d="M11148 1941 c10 -6 13 -34 10 -110 -2 -63 1 -101 7 -101 6 0 9 31 7
80 -3 51 0 80 6 80 6 0 41 -39 79 -86 l68 -86 3 110 c2 95 5 111 20 115 9 3
-1 5 -22 6 -35 1 -38 -1 -22 -12 14 -10 17 -25 14 -71 l-3 -59 -55 71 c-49 64
-59 71 -90 71 -23 1 -30 -2 -22 -8z"/>
<path d="M11511 1918 c0 -18 3 -26 6 -18 7 19 33 40 51 40 11 0 13 -21 10
-105 l-3 -105 30 0 30 0 -3 105 c-3 100 -2 105 17 105 11 0 27 -10 35 -22 l16
-22 0 27 0 27 -95 0 -95 0 1 -32z"/>
<path d="M11874 1934 c20 -19 23 -173 4 -192 -9 -9 -3 -12 28 -12 l39 0 -3 50
c-3 40 -1 50 12 50 8 0 20 -8 25 -17 8 -14 10 -8 10 27 0 35 -2 41 -10 28 -20
-35 -39 -21 -39 27 0 43 1 45 30 45 17 0 39 -9 50 -20 l20 -20 0 25 c0 25 -1
25 -91 25 -82 0 -89 -1 -75 -16z"/>
<path d="M12225 1933 c14 -13 16 -33 13 -110 l-3 -93 30 0 c29 0 31 2 27 34
-8 69 1 73 37 18 27 -43 38 -52 62 -52 l30 0 -35 52 -35 51 25 19 c13 11 24
30 24 43 0 39 -35 55 -118 55 -68 0 -72 -1 -57 -17z m119 -15 c15 -25 -4 -72
-32 -76 -20 -3 -22 1 -22 48 0 47 2 51 21 48 12 -2 27 -11 33 -20z"/>
<path d="M12588 1941 c10 -6 13 -34 10 -110 -2 -63 1 -101 7 -101 6 0 9 24 7
58 -7 125 -6 125 78 21 l75 -93 3 109 c2 72 7 112 15 117 7 4 -2 8 -22 8 -31
0 -33 -2 -17 -13 14 -10 17 -25 14 -72 l-3 -59 -58 72 c-50 62 -62 72 -90 72
-21 0 -27 -3 -19 -9z"/>
<path d="M13006 1852 c-22 -53 -44 -103 -49 -109 -7 -9 -5 -13 6 -13 8 0 17
13 21 30 5 27 9 30 45 30 30 0 43 -5 51 -20 6 -11 8 -25 5 -30 -4 -6 10 -10
34 -10 l40 0 -18 33 c-11 17 -34 67 -52 110 -17 42 -35 77 -38 77 -3 0 -24
-44 -45 -98z m54 -39 c0 -8 -12 -13 -30 -13 -35 0 -35 -1 -14 48 l16 37 14
-30 c7 -16 13 -36 14 -42z"/>
<path d="M13357 1929 c-84 -65 -33 -209 75 -209 26 0 94 38 84 47 -3 3 -14 -2
-25 -11 -13 -12 -32 -16 -57 -14 -51 4 -66 33 -61 112 3 47 8 63 26 77 22 18
22 19 3 19 -10 0 -31 -9 -45 -21z"/>
<path d="M13463 1934 c15 -9 32 -25 37 -37 8 -19 9 -17 9 13 1 34 -1 35 -37
37 l-37 2 28 -15z"/>
<path d="M13694 1937 c15 -11 17 -26 14 -110 l-3 -97 30 0 30 0 -3 104 c-3 94
-1 105 15 109 10 3 -9 5 -41 6 -51 1 -57 -1 -42 -12z"/>
<path d="M13974 1916 c-39 -39 -45 -86 -19 -136 53 -102 215 -63 215 52 0 50
-18 87 -51 104 -39 20 -52 17 -30 -5 38 -38 40 -143 5 -182 -23 -26 -60 -24
-78 4 -33 52 -25 147 15 180 l21 17 -22 0 c-12 0 -37 -15 -56 -34z"/>
<path d="M14333 1943 c16 -4 18 -15 15 -109 -2 -65 1 -104 7 -104 6 0 9 24 7
58 -7 127 -6 127 78 22 l75 -94 3 109 c2 72 7 112 15 117 7 4 -2 8 -22 8 -31
0 -33 -2 -17 -13 14 -10 17 -25 14 -72 l-3 -59 -58 72 c-54 67 -61 72 -95 71
-20 -1 -29 -3 -19 -6z"/>
<path d="M14756 1852 c-22 -53 -44 -103 -49 -109 -7 -9 -5 -13 6 -13 8 0 17
13 21 30 5 27 9 30 45 30 30 0 43 -5 51 -20 6 -11 8 -25 5 -30 -4 -6 10 -10
34 -10 l40 0 -18 33 c-11 17 -34 67 -52 110 -17 42 -35 77 -38 77 -3 0 -24
-44 -45 -98z m54 -39 c0 -8 -12 -13 -30 -13 -35 0 -35 -1 -14 48 l16 37 14
-30 c7 -16 13 -36 14 -42z"/>
<path d="M15073 1943 c16 -4 18 -15 15 -109 l-3 -104 40 1 c22 0 34 3 28 6 -9
3 -13 33 -13 98 0 79 3 96 18 104 13 8 2 10 -43 10 -33 -1 -52 -3 -42 -6z"/>
<path d="M4974 1775 c-4 -9 -18 -22 -33 -30 l-26 -14 31 -1 c28 0 32 4 36 30
5 32 1 39 -8 15z"/>
<path d="M8918 1758 l-27 -28 24 0 c18 0 26 7 31 25 9 35 4 35 -28 3z"/>
<path d="M12042 1769 c-7 -11 -23 -24 -35 -29 -20 -8 -19 -9 9 -9 27 -1 32 3
37 27 7 34 4 36 -11 11z"/>
<path d="M15228 1758 l-27 -28 24 0 c16 0 25 7 29 26 4 15 6 27 4 28 -2 1 -15
-11 -30 -26z"/>
<path d="M9517 1755 c-8 -20 -4 -29 11 -24 5 2 6 13 2 23 -6 19 -7 19 -13 1z"/>
<path d="M6843 1325 c-39 -17 -53 -42 -53 -95 0 -70 63 -113 138 -94 20 5 38
15 40 23 4 11 -2 12 -24 6 -52 -15 -86 -9 -111 19 -28 33 -29 65 -3 99 24 30
56 40 98 27 24 -6 32 -5 32 5 0 26 -67 32 -117 10z"/>
<path d="M7763 1325 c-40 -17 -69 -71 -59 -110 15 -58 75 -93 141 -81 34 7 35
8 35 51 0 43 -1 45 -30 45 -16 0 -30 -4 -30 -10 0 -5 9 -10 20 -10 14 0 20 -7
20 -24 0 -46 -80 -42 -114 6 -48 68 26 144 112 115 16 -6 22 -5 22 6 0 28 -66
35 -117 12z"/>
<path d="M7057 1318 c-3 -7 -21 -50 -41 -95 -24 -57 -31 -83 -22 -83 7 0 18
11 24 25 10 21 18 25 57 25 39 0 47 -4 57 -25 6 -14 17 -25 24 -25 10 0 7 16
-12 58 -14 31 -33 74 -41 95 -15 37 -36 48 -46 25z m41 -94 c-4 -3 -17 -4 -31
-2 -25 3 -25 3 -10 38 l15 35 16 -32 c8 -18 13 -35 10 -39z"/>
<path d="M7190 1235 c0 -78 3 -95 15 -95 11 0 15 12 15 45 0 25 4 45 8 45 13
0 37 -23 61 -57 12 -18 29 -33 37 -33 11 0 6 13 -17 46 -28 41 -30 48 -15 56
19 10 21 59 4 76 -7 7 -34 12 -60 12 l-48 0 0 -95z m93 65 c5 -4 6 -17 2 -29
-4 -15 -15 -21 -36 -21 -27 0 -29 3 -29 36 0 34 1 36 28 29 15 -3 31 -10 35
-15z"/>
<path d="M7345 1320 c3 -5 22 -10 41 -10 l34 0 0 -85 c0 -50 4 -85 10 -85 6 0
10 35 10 85 l0 85 40 0 c22 0 40 5 40 10 0 6 -37 10 -91 10 -57 0 -88 -4 -84
-10z"/>
<path d="M7567 1293 c-8 -21 -27 -64 -41 -95 -19 -42 -22 -58 -12 -58 7 0 18
11 24 25 10 22 18 25 61 25 44 0 49 -3 55 -25 4 -14 13 -25 21 -25 17 0 19 -6
-40 128 -15 34 -33 62 -40 62 -7 0 -20 -17 -28 -37z m51 -45 c11 -28 11 -28
-24 -28 -19 0 -33 4 -30 9 3 4 10 21 16 36 11 30 19 26 38 -17z"/>
<path d="M7930 1235 l0 -95 60 0 c33 0 60 4 60 10 0 6 -22 10 -50 10 -49 0
-50 1 -50 30 0 29 2 30 45 30 33 0 45 4 45 15 0 11 -12 15 -45 15 -43 0 -45 1
-45 30 0 29 2 30 44 30 25 0 48 5 51 10 4 6 -17 10 -54 10 l-61 0 0 -95z"/>
<path d="M8090 1235 c0 -77 3 -95 15 -95 11 0 15 17 17 74 l3 74 63 -74 c35
-41 70 -74 78 -74 11 0 14 19 14 95 0 57 -4 95 -10 95 -6 0 -10 -30 -10 -69 0
-39 -3 -72 -8 -74 -4 -3 -35 28 -70 69 -35 41 -70 74 -78 74 -11 0 -14 -19
-14 -95z"/>
<path d="M8343 1235 c-27 -61 -37 -95 -29 -95 7 0 18 11 24 25 10 22 18 25 61
25 44 0 49 -3 55 -25 4 -14 13 -25 21 -25 14 0 13 4 0 37 -44 104 -69 153 -79
153 -6 0 -30 -43 -53 -95z m75 15 c11 -30 11 -30 -24 -30 -19 0 -33 4 -30 9 3
4 10 20 16 35 12 32 24 28 38 -14z"/>
<path d="M4677 432 c-8 -9 -20 -29 -26 -45 -6 -15 -17 -27 -26 -27 -19 0 -20
-26 -1 -33 11 -4 11 -17 0 -79 -18 -100 -17 -108 5 -108 23 0 25 8 42 113 11
70 14 77 34 77 13 0 25 7 29 15 3 10 -1 15 -14 15 -10 0 -22 5 -26 12 -9 14
34 51 53 44 8 -3 13 2 13 14 0 16 -7 20 -33 20 -20 0 -41 -7 -50 -18z"/>
<path d="M5206 434 c-10 -27 -7 -34 19 -34 20 0 25 5 25 25 0 29 -34 36 -44 9z"/>
<path d="M6910 441 c0 -5 -3 -16 -6 -25 -5 -12 0 -16 19 -16 23 0 43 30 29 44
-9 10 -42 7 -42 -3z"/>
<path d="M7117 443 c-4 -3 -7 -15 -7 -25 0 -13 7 -18 25 -18 20 0 25 5 25 25
0 18 -5 25 -18 25 -10 0 -22 -3 -25 -7z"/>
<path d="M7700 430 c0 -13 7 -20 20 -20 13 0 20 7 20 20 0 13 -7 20 -20 20
-13 0 -20 -7 -20 -20z"/>
<path d="M7775 440 c-4 -7 -3 -16 3 -22 14 -14 45 -2 40 15 -6 16 -34 21 -43
7z"/>
<path d="M11277 443 c-15 -14 -7 -43 12 -43 17 0 31 18 31 41 0 10 -33 12 -43
2z"/>
<path d="M11477 443 c-4 -3 -7 -15 -7 -25 0 -13 7 -18 25 -18 20 0 25 5 25 25
0 18 -5 25 -18 25 -10 0 -22 -3 -25 -7z"/>
<path d="M12399 435 c-32 -17 -52 -63 -44 -98 9 -34 21 -44 86 -66 57 -19 74
-46 49 -77 -19 -22 -86 -18 -109 7 -13 14 -26 19 -40 14 -27 -8 -26 -16 3 -44
70 -66 206 -29 206 56 0 53 -15 70 -76 90 -67 21 -84 43 -54 73 25 25 51 25
81 1 25 -20 59 -17 59 5 0 22 -61 54 -100 54 -19 -1 -47 -7 -61 -15z"/>
<path d="M13067 443 c-4 -3 -7 -15 -7 -25 0 -14 6 -19 23 -16 29 4 38 48 9 48
-10 0 -22 -3 -25 -7z"/>
<path d="M1816 424 c-10 -27 -7 -34 18 -34 22 0 36 16 36 41 0 16 -48 10 -54
-7z"/>
<path d="M1900 438 c0 -2 -11 -66 -25 -142 -14 -77 -25 -144 -25 -148 0 -4 11
-8 24 -8 25 0 26 2 42 93 l6 37 53 0 c49 0 65 9 65 36 0 2 -25 4 -56 4 l-56 0
7 37 c4 21 9 41 11 45 3 5 34 8 70 8 57 0 64 2 64 20 0 19 -7 20 -90 20 -49 0
-90 -1 -90 -2z"/>
<path d="M4004 393 c-3 -27 -14 -94 -24 -151 l-17 -103 26 3 c23 3 27 9 36 58
l10 55 70 7 c85 10 115 35 115 98 0 60 -32 80 -131 80 l-78 0 -7 -47z m154 -5
c17 -17 15 -53 -4 -69 -9 -7 -37 -13 -62 -13 -44 -1 -47 0 -44 24 7 67 10 70
55 70 24 0 48 -5 55 -12z"/>
<path d="M6005 418 c-8 -39 -45 -256 -45 -268 0 -5 10 -10 23 -10 22 0 24 7
45 138 12 75 22 143 22 150 0 22 -39 13 -45 -10z"/>
<path d="M6621 308 c-12 -73 -21 -141 -21 -150 0 -16 10 -18 74 -18 81 0 122
11 142 38 20 26 17 76 -6 97 -20 18 -20 18 5 41 31 28 33 76 5 104 -17 17 -33
20 -98 20 l-79 0 -22 -132z m167 64 c5 -36 -15 -52 -68 -52 -46 0 -47 1 -43
28 9 52 10 53 60 50 41 -3 48 -6 51 -26z m-27 -102 c11 -6 19 -21 19 -35 0
-38 -25 -55 -82 -55 l-50 0 7 43 c4 23 9 45 12 50 6 11 71 9 94 -3z"/>
<path d="M7006 413 c-3 -16 -13 -73 -21 -128 -8 -55 -18 -110 -20 -122 -5 -19
-1 -23 20 -23 14 0 25 4 25 8 0 7 15 96 45 265 4 23 1 27 -19 27 -19 0 -26 -7
-30 -27z"/>
<path d="M9210 434 c0 -10 -39 -245 -45 -271 -4 -19 -1 -23 19 -23 22 0 26 7
38 63 13 59 14 62 45 65 36 4 43 -6 63 -85 9 -36 15 -43 35 -43 29 0 30 1 10
68 l-16 52 36 34 c43 41 47 85 10 121 -22 23 -32 25 -110 25 -47 0 -85 -3 -85
-6z m161 -58 c8 -17 8 -29 0 -45 -10 -18 -21 -21 -73 -21 -58 0 -60 1 -54 23
3 12 6 32 6 45 0 20 5 22 55 22 49 0 57 -3 66 -24z"/>
<path d="M11031 388 c-21 -105 -41 -242 -35 -247 3 -3 12 2 19 13 13 17 15 17
37 2 70 -49 148 18 148 126 0 78 -51 112 -109 72 l-23 -17 7 52 c6 47 5 51
-13 51 -17 0 -23 -10 -31 -52z m114 -72 c21 -32 11 -91 -21 -123 -20 -20 -27
-22 -44 -13 -28 15 -34 33 -25 76 6 35 44 84 64 84 6 0 18 -11 26 -24z"/>
<path d="M11351 308 c-12 -73 -25 -141 -27 -150 -4 -14 1 -18 20 -18 27 0 26
-4 51 150 9 52 18 107 21 123 5 23 2 27 -18 27 -24 0 -25 -5 -47 -132z"/>
<path d="M11704 390 c-7 -53 -14 -60 -34 -35 -16 19 -59 19 -87 0 -51 -36 -69
-171 -27 -202 24 -18 69 -16 84 2 7 8 17 15 22 15 6 0 8 -7 4 -15 -4 -11 1
-15 18 -15 22 0 24 7 46 137 12 76 25 143 27 150 3 9 -4 13 -21 13 -23 0 -26
-5 -32 -50z m-36 -72 c29 -29 2 -130 -38 -143 -36 -12 -53 13 -48 72 3 28 10
59 17 67 16 19 52 21 69 4z"/>
<path d="M12175 403 c-11 -65 -13 -68 -33 -49 -42 37 -106 10 -131 -57 -16
-41 -13 -109 5 -135 18 -26 75 -30 94 -7 7 8 16 15 21 15 5 0 6 -7 3 -15 -5
-11 1 -15 18 -15 22 0 24 6 49 150 l25 150 -22 0 c-19 0 -24 -7 -29 -37z m-37
-85 c28 -28 1 -131 -38 -143 -33 -11 -54 16 -52 66 1 23 9 53 17 66 17 25 53
31 73 11z"/>
<path d="M13397 418 c-3 -13 -13 -68 -22 -123 -8 -55 -18 -112 -21 -127 -5
-25 -3 -28 19 -28 23 0 25 5 49 150 l25 150 -23 0 c-14 0 -24 -8 -27 -22z"/>
<path d="M13486 418 c-9 -36 -7 -188 3 -188 8 0 26 68 47 178 6 29 4 32 -19
32 -17 0 -26 -7 -31 -22z"/>
<path d="M7562 395 c-14 -18 -29 -25 -55 -25 -46 0 -87 -33 -87 -70 0 -16 5
-32 11 -35 7 -5 3 -15 -11 -31 -17 -17 -21 -30 -16 -50 5 -18 2 -32 -9 -44
-36 -40 5 -80 83 -80 88 0 141 46 113 99 -11 20 -38 28 -111 33 -27 2 -35 7
-35 23 0 17 8 21 63 25 48 4 67 10 78 24 18 26 18 61 -1 80 -22 21 -19 35 9
42 14 3 27 12 30 20 10 25 -41 16 -62 -11z m-14 -86 c4 -33 -20 -53 -53 -45
-48 12 -25 80 25 74 18 -2 26 -10 28 -29z m1 -173 c30 -36 -70 -64 -114 -32
-11 8 -16 19 -12 30 8 21 109 23 126 2z"/>
<path d="M2111 345 c-36 -31 -55 -84 -47 -131 10 -49 41 -74 93 -74 54 0 86
29 103 90 29 108 -67 183 -149 115z m103 -47 c14 -39 -8 -106 -39 -120 -54
-24 -85 54 -49 123 13 25 20 30 47 27 24 -2 34 -9 41 -30z"/>
<path d="M2385 344 c-24 -26 -25 -26 -25 -5 0 14 -6 21 -18 21 -16 0 -21 -15
-35 -100 -21 -123 -21 -120 3 -120 12 0 21 8 25 23 28 131 29 131 68 150 23
12 37 26 37 38 0 27 -27 24 -55 -7z"/>
<path d="M2534 348 c-23 -18 -27 -19 -21 -5 5 13 1 17 -17 17 -21 0 -25 -7
-35 -62 -26 -149 -26 -158 -3 -158 14 0 23 8 26 23 28 146 42 172 88 165 26
-3 27 -16 13 -125 -7 -59 -6 -63 13 -63 17 0 22 11 32 68 13 70 25 102 44 114
16 11 54 10 61 -2 5 -8 -5 -88 -20 -157 -5 -19 -1 -23 19 -23 26 0 25 -2 46
118 10 54 9 67 -5 88 -20 31 -70 32 -102 2 l-23 -22 -16 22 c-20 29 -63 29
-100 0z"/>
<path d="M2868 354 c-16 -8 -28 -19 -28 -24 0 -20 23 -21 56 -4 39 21 67 12
72 -23 3 -18 -4 -21 -48 -25 -61 -6 -104 -34 -108 -72 -7 -57 64 -87 116 -50
20 14 22 14 22 0 0 -10 9 -16 23 -16 22 0 24 6 36 92 l13 92 -26 23 c-32 27
-87 30 -128 7z m94 -120 c-5 -26 -42 -64 -63 -64 -46 0 -48 66 -1 76 15 3 32
7 37 9 19 6 30 -2 27 -21z"/>
<path d="M3152 348 c-19 -19 -22 -20 -22 -5 0 11 -8 17 -23 17 -22 0 -25 -6
-36 -82 -7 -46 -15 -96 -18 -111 -5 -26 -3 -28 17 -25 21 3 26 13 40 80 19 89
32 108 73 108 l30 0 -6 -57 c-4 -32 -10 -75 -13 -96 -7 -36 -5 -39 17 -35 20
3 25 12 36 72 16 87 35 118 71 114 24 -3 27 -7 27 -43 -1 -22 -4 -64 -9 -92
-7 -49 -6 -53 12 -53 28 0 29 3 43 103 12 80 12 88 -6 107 -23 26 -65 26 -99
-1 l-27 -22 -15 22 c-20 28 -63 27 -92 -1z"/>
<path d="M3481 345 c-56 -47 -65 -133 -19 -182 16 -17 33 -23 65 -23 54 0 86
28 103 90 29 108 -67 183 -149 115z m100 -36 c22 -42 -12 -139 -48 -139 -48 0
-66 60 -39 125 12 29 20 35 45 35 21 0 34 -7 42 -21z"/>
<path d="M3692 347 c-43 -46 -23 -93 51 -117 25 -8 37 -17 37 -31 0 -23 -46
-37 -69 -20 -28 20 -41 23 -58 16 -16 -6 -15 -9 10 -31 21 -18 40 -24 76 -24
61 0 94 27 89 73 -3 28 -10 35 -55 57 -35 16 -53 31 -53 43 0 26 29 33 62 14
31 -18 60 -13 52 7 -15 39 -110 48 -142 13z"/>
<path d="M4321 344 c-20 -25 -21 -26 -21 -5 0 14 -6 21 -19 21 -22 0 -25 -8
-41 -110 -6 -41 -14 -83 -16 -92 -4 -14 1 -18 19 -18 22 0 25 6 36 70 10 54
19 74 38 90 14 11 31 20 38 20 7 0 15 11 17 25 7 34 -24 34 -51 -1z"/>
<path d="M4421 344 c-54 -45 -63 -132 -18 -181 32 -36 100 -32 137 7 99 106
-11 265 -119 174z m99 -29 c29 -35 -7 -145 -48 -145 -25 0 -52 31 -52 61 0 34
17 81 33 91 20 13 54 9 67 -7z"/>
<path d="M4780 343 c-52 -47 -60 -133 -17 -180 30 -33 99 -32 133 2 25 25 25
45 0 45 -7 0 -21 -9 -31 -20 -33 -37 -85 -15 -85 36 0 23 2 24 81 24 l81 0 -6
38 c-14 79 -97 108 -156 55z m98 -15 c7 -7 12 -20 12 -30 0 -15 -9 -18 -50
-18 -54 0 -62 10 -33 42 18 21 53 24 71 6z"/>
<path d="M4992 347 c-43 -46 -23 -93 51 -117 44 -14 52 -46 13 -56 -28 -7 -66
3 -66 17 0 12 -37 12 -45 0 -11 -20 47 -51 94 -51 56 0 91 26 91 69 0 33 -21
54 -72 71 -27 8 -38 17 -38 31 0 28 29 35 62 16 31 -18 60 -13 52 7 -15 39
-110 48 -142 13z"/>
<path d="M5311 344 c-55 -46 -64 -133 -19 -181 26 -27 92 -31 125 -8 31 21 57
96 49 139 -14 72 -97 99 -155 50z m100 -35 c24 -46 -9 -139 -49 -139 -47 0
-65 60 -38 125 12 29 20 35 45 35 21 0 34 -7 42 -21z"/>
<path d="M5590 350 c-24 -24 -34 -26 -26 -5 4 11 -1 15 -18 15 -21 0 -24 -7
-35 -82 -7 -46 -15 -96 -18 -111 -5 -26 -3 -28 18 -25 20 3 25 12 36 72 16 87
35 118 71 114 30 -3 32 -13 17 -125 -7 -59 -6 -63 13 -63 17 0 22 10 33 73 6
39 12 85 12 101 0 52 -64 75 -103 36z"/>
<path d="M5784 360 c-29 -11 -39 -29 -25 -43 7 -7 20 -5 46 9 40 21 68 12 73
-23 3 -18 -4 -21 -53 -25 -65 -5 -105 -35 -105 -78 0 -53 69 -79 118 -44 20
14 22 14 22 0 0 -10 9 -16 23 -16 22 0 24 6 36 92 l13 92 -26 23 c-28 24 -81
30 -122 13z m88 -125 c-3 -23 -47 -65 -66 -65 -19 0 -38 26 -34 47 3 18 61 44
88 40 9 -2 14 -11 12 -22z"/>
<path d="M6110 343 c-52 -47 -60 -133 -17 -180 30 -33 99 -32 133 2 25 25 25
45 0 45 -7 0 -21 -9 -31 -20 -33 -37 -85 -15 -85 36 0 23 2 24 81 24 l81 0 -6
38 c-14 79 -97 108 -156 55z m98 -15 c7 -7 12 -20 12 -30 0 -15 -9 -18 -50
-18 -54 0 -62 10 -33 42 18 21 53 24 71 6z"/>
<path d="M6322 347 c-43 -46 -23 -93 51 -117 44 -14 52 -46 13 -56 -28 -7 -66
3 -66 17 0 12 -37 12 -45 0 -11 -20 47 -51 94 -51 61 0 94 27 89 73 -3 28 -10
36 -58 59 -58 28 -67 43 -37 62 13 8 24 7 47 -6 32 -18 62 -15 54 6 -15 39
-110 48 -142 13z"/>
<path d="M7266 349 c-21 -17 -26 -18 -26 -5 0 9 -8 16 -19 16 -19 0 -28 -31
-47 -172 -6 -44 -5 -48 14 -48 14 0 23 8 26 23 3 12 10 47 16 77 12 61 33 90
65 90 32 0 35 -16 19 -106 -7 -43 -14 -80 -14 -81 0 -2 11 -3 24 -3 21 0 24 6
35 69 15 96 14 125 -7 144 -25 23 -54 21 -86 -4z"/>
<path d="M7923 360 c-61 -25 -85 -148 -38 -195 17 -18 35 -25 63 -25 42 0 92
30 92 56 0 20 -27 17 -50 -6 -11 -11 -28 -20 -38 -20 -25 0 -52 31 -52 58 0
21 5 22 81 22 l82 0 -6 38 c-11 65 -71 97 -134 72z m81 -42 c24 -34 20 -38
-39 -38 -30 0 -55 3 -55 8 0 20 34 52 55 52 13 0 31 -10 39 -22z"/>
<path d="M8115 345 c-14 -13 -25 -33 -25 -45 0 -27 34 -59 70 -67 61 -12 61
-63 0 -63 -15 0 -33 7 -40 15 -16 19 -50 20 -50 1 0 -25 42 -46 90 -46 60 0
90 21 90 64 0 38 -19 58 -72 76 -26 8 -38 17 -38 31 0 27 45 36 70 14 19 -17
50 -15 50 4 0 19 -45 41 -83 41 -27 0 -45 -7 -62 -25z"/>
<path d="M8442 354 c-56 -39 -71 -146 -27 -189 36 -37 88 -34 128 7 30 29 30
32 12 38 -14 5 -25 2 -35 -10 -40 -46 -85 -25 -84 39 2 78 62 121 98 70 9 -13
21 -19 30 -16 22 9 20 24 -9 52 -28 29 -79 33 -113 9z"/>
<path d="M8661 357 c-59 -29 -84 -132 -45 -184 17 -22 30 -29 66 -31 55 -4 93
23 109 78 31 102 -44 181 -130 137z m79 -42 c17 -21 7 -100 -15 -125 -23 -25
-47 -25 -70 0 -14 15 -16 29 -11 62 4 23 14 50 23 60 20 22 56 23 73 3z"/>
<path d="M8923 350 c-21 -24 -35 -26 -26 -4 4 12 0 15 -18 12 -21 -3 -25 -11
-36 -78 -7 -41 -15 -90 -18 -108 -6 -31 -4 -33 17 -30 20 3 24 12 35 72 16 88
35 118 71 114 24 -3 27 -7 26 -38 0 -19 -4 -61 -8 -92 -8 -55 -7 -58 13 -58
11 0 21 1 21 3 0 1 7 40 15 87 8 47 15 88 15 93 0 17 -42 47 -65 47 -14 0 -33
-9 -42 -20z"/>
<path d="M9494 351 c-57 -35 -74 -142 -29 -186 33 -34 102 -35 133 -2 12 13
22 29 22 35 0 19 -28 14 -50 -8 -27 -27 -56 -25 -76 5 -28 43 -14 55 71 55 74
0 75 0 75 25 0 33 -25 81 -45 89 -30 11 -70 6 -101 -13z m82 -19 c6 -4 14 -17
18 -29 7 -22 5 -23 -48 -23 -60 0 -68 8 -36 40 21 21 46 25 66 12z"/>
<path d="M9695 345 c-43 -42 -28 -87 35 -106 22 -7 45 -18 51 -26 16 -19 -7
-43 -41 -43 -15 0 -33 7 -40 15 -16 19 -50 20 -50 1 0 -24 42 -46 88 -46 53 0
80 13 92 46 16 42 -3 70 -59 89 -38 12 -51 22 -51 36 0 27 44 35 76 14 20 -13
29 -14 38 -5 18 19 -29 50 -76 50 -28 0 -46 -7 -63 -25z"/>
<path d="M9956 349 c-21 -16 -25 -17 -20 -4 5 13 2 16 -17 13 -22 -3 -25 -11
-46 -133 -28 -168 -28 -167 -1 -163 19 2 24 12 31 56 8 50 10 52 26 38 25 -22
77 -20 101 4 29 29 40 63 40 121 0 81 -55 114 -114 68z m62 -42 c24 -49 -11
-137 -55 -137 -7 0 -20 11 -29 25 -21 33 -11 89 22 122 29 29 44 26 62 -10z"/>
<path d="M10163 360 c-61 -25 -85 -148 -38 -195 17 -18 35 -25 62 -25 47 0 81
22 99 66 44 104 -27 192 -123 154z m75 -42 c20 -20 15 -92 -9 -122 -26 -33
-54 -33 -75 -1 -19 29 -12 89 13 118 19 20 54 22 71 5z"/>
<path d="M10422 348 c-19 -19 -22 -20 -22 -5 0 10 -8 17 -20 17 -21 0 -23 -4
-40 -110 -6 -36 -14 -75 -17 -87 -4 -19 -1 -23 20 -23 23 0 26 5 32 53 4 28
15 71 26 95 16 38 22 43 46 40 26 -3 28 -7 28 -43 -1 -22 -4 -64 -9 -92 -7
-49 -6 -53 12 -53 23 0 26 7 42 108 10 63 10 76 -4 97 -21 32 -64 33 -94 3z"/>
<path d="M10590 350 c-25 -25 -26 -72 -2 -92 9 -9 34 -21 55 -28 38 -12 46
-27 25 -48 -16 -16 -50 -15 -74 3 -20 15 -54 20 -54 8 1 -50 114 -71 164 -32
21 16 26 28 24 53 -3 31 -6 34 -98 76 -20 10 -19 30 3 44 13 8 24 7 48 -7 20
-11 36 -14 46 -9 12 7 10 13 -12 30 -36 29 -98 29 -125 2z"/>
<path d="M10808 354 c-16 -8 -28 -19 -28 -25 0 -18 29 -21 52 -5 31 22 54 20
72 -6 20 -28 12 -38 -32 -38 -50 0 -105 -29 -116 -62 -21 -60 54 -103 111 -63
19 13 22 13 27 0 3 -8 14 -15 24 -15 15 0 20 14 32 92 l13 91 -27 24 c-32 27
-86 30 -128 7z m94 -120 c-5 -26 -42 -64 -63 -64 -46 0 -48 66 -1 76 15 3 32
7 37 9 19 6 30 -2 27 -21z"/>
<path d="M11803 346 c-25 -22 -26 -25 -10 -31 18 -7 30 -4 59 17 23 17 68 -4
68 -32 0 -17 -7 -20 -39 -20 -74 0 -121 -31 -121 -79 0 -15 8 -35 18 -44 23
-21 75 -22 92 -2 16 19 30 19 30 0 0 -25 39 -18 45 8 20 90 25 148 15 167 -25
47 -111 56 -157 16z m107 -106 c0 -23 -42 -70 -62 -70 -51 1 -50 59 2 77 50
17 60 16 60 -7z"/>
<path d="M12639 355 c-52 -28 -74 -117 -44 -174 17 -33 33 -41 83 -41 40 1 59
11 85 50 20 29 23 117 4 141 -30 39 -83 49 -128 24z m93 -57 c6 -17 5 -42 -2
-68 -13 -49 -45 -69 -80 -50 -20 11 -22 18 -18 65 6 66 21 87 61 83 23 -2 33
-10 39 -30z"/>
<path d="M12850 342 c-48 -49 -53 -155 -7 -187 35 -24 87 -19 119 12 33 32 35
39 8 46 -11 3 -20 1 -20 -4 0 -5 -11 -16 -24 -24 -38 -25 -66 -6 -66 46 0 83
57 130 94 78 9 -13 21 -19 30 -16 22 9 20 24 -9 52 -35 36 -88 34 -125 -3z"/>
<path d="M13168 354 c-16 -8 -28 -19 -28 -24 0 -20 23 -21 56 -4 39 21 67 12
72 -23 3 -18 -4 -21 -48 -25 -61 -6 -104 -34 -108 -72 -7 -56 63 -87 115 -51
19 13 22 13 27 0 3 -8 14 -15 24 -15 15 0 20 14 31 92 l13 92 -26 23 c-32 27
-87 30 -128 7z m94 -120 c-5 -26 -42 -64 -63 -64 -46 0 -48 66 -1 76 15 3 32
7 37 9 19 6 30 -2 27 -21z"/>
<path d="M1815 338 c-3 -13 -12 -54 -20 -93 -9 -38 -18 -78 -21 -87 -4 -14 1
-18 24 -18 l29 0 6 83 c9 112 9 137 -3 137 -5 0 -12 -10 -15 -22z"/>
<path d="M5177 260 c-21 -125 -21 -122 6 -118 19 3 24 12 34 73 26 159 26 145
0 145 -22 0 -25 -6 -40 -100z"/>
<path d="M6881 278 c-7 -46 -15 -95 -18 -110 -5 -25 -2 -28 19 -28 24 0 26 5
41 100 21 124 21 120 -6 120 -22 0 -25 -6 -36 -82z"/>
<path d="M7100 358 c0 -2 -7 -41 -15 -88 -20 -114 -20 -130 5 -130 14 0 21 9
25 33 3 17 12 67 19 110 l13 77 -23 0 c-13 0 -24 -1 -24 -2z"/>
<path d="M7656 343 c-2 -10 -10 -51 -16 -91 -11 -66 -10 -75 6 -93 23 -25 62
-24 91 3 l23 21 0 -21 c0 -15 6 -22 19 -22 19 0 28 31 47 173 6 43 5 47 -14
47 -17 0 -22 -8 -27 -37 -19 -110 -40 -147 -79 -141 -24 3 -26 31 -12 126 7
48 6 52 -12 52 -12 0 -23 -8 -26 -17z"/>
<path d="M11256 343 c-2 -10 -10 -52 -16 -93 -6 -41 -14 -83 -16 -92 -4 -14 1
-18 19 -18 23 0 26 6 36 63 25 147 26 157 3 157 -11 0 -23 -8 -26 -17z"/>
<path d="M11451 298 c-6 -35 -14 -85 -17 -111 -7 -47 -6 -49 17 -45 21 3 25
11 36 78 7 41 15 90 18 108 5 29 4 32 -19 32 -22 0 -25 -6 -35 -62z"/>
<path d="M13041 308 c-6 -29 -13 -71 -17 -93 -3 -22 -8 -48 -11 -57 -3 -14 2
-18 21 -18 14 0 26 1 26 3 1 1 9 50 19 110 l17 107 -22 0 c-19 0 -24 -8 -33
-52z"/>
<path d="M13456 174 c-10 -27 -7 -34 19 -34 14 0 25 4 25 9 0 5 3 16 6 25 5
12 0 16 -19 16 -14 0 -28 -7 -31 -16z"/>
</g>
</svg>
